<svg width="32" height="32" fill="none" xmlns="http://www.w3.org/2000/svg"><path d="M16.875 1.875c-8.283 0-15 6.717-15 15 0 8.284 6.717 15 15 15 8.284 0 15-6.716 15-15 0-8.283-6.716-15-15-15zm7.209 11.307c.01.157.01.321.01.482 0 4.915-3.744 10.577-10.584 10.577a10.55 10.55 0 01-5.712-1.667c.301.033.59.046.897.046a7.46 7.46 0 004.617-1.587 3.72 3.72 0 01-3.475-2.578c.573.084 1.088.084 1.678-.067a3.717 3.717 0 01-2.977-3.65v-.046a3.722 3.722 0 001.677.472 3.722 3.722 0 01-1.151-4.969 10.555 10.555 0 007.667 3.888c-.526-2.528 1.363-4.574 3.633-4.574a3.71 3.71 0 012.715 1.172 7.347 7.347 0 002.36-.894 3.702 3.702 0 01-1.633 2.046 7.357 7.357 0 002.143-.58 7.793 7.793 0 01-1.865 1.929z" fill="#666"/></svg>