<svg width="30" height="30" fill="none" xmlns="http://www.w3.org/2000/svg"><g clip-path="url(#clip0_1_28)"><path d="M15 .6C7.047.6.6 7.047.6 15S7.047 29.4 15 29.4 29.4 22.953 29.4 15 22.953.6 15 .6zm-3.525 20.368H8.559v-9.383h2.916v9.383zM9.999 10.432c-.921 0-1.517-.652-1.517-1.459 0-.824.614-1.457 1.555-1.457.94 0 1.516.633 1.534 1.457 0 .807-.594 1.46-1.572 1.46zm12.126 10.536h-2.916v-5.2c0-1.21-.423-2.033-1.477-2.033-.806 0-1.284.557-1.496 1.093-.078.19-.098.46-.098.729v5.41h-2.917v-6.39c0-1.171-.037-2.151-.076-2.994h2.533l.133 1.303h.059c.384-.611 1.325-1.514 2.898-1.514 1.918 0 3.357 1.285 3.357 4.048v5.548z" fill="#666"/></g><defs><clipPath id="clip0_1_28"><path fill="#fff" d="M0 0h30v30H0z"/></clipPath></defs></svg>