<svg width="183" height="59" fill="none" xmlns="http://www.w3.org/2000/svg"><path fill="#D9D9D9" d="M0 0h183v59H0z"/><path d="M64.432 36V22h2.56v12h6.2v2h-8.76zm16.306.24c-1.4 0-2.626-.307-3.68-.92a6.624 6.624 0 01-2.46-2.54c-.586-1.093-.88-2.353-.88-3.78 0-1.427.294-2.68.88-3.76a6.587 6.587 0 012.46-2.56c1.054-.613 2.28-.92 3.68-.92 1.387 0 2.607.307 3.66.92a6.406 6.406 0 012.46 2.56c.587 1.08.88 2.333.88 3.76 0 1.427-.293 2.687-.88 3.78a6.44 6.44 0 01-2.46 2.54c-1.053.613-2.273.92-3.66.92zm0-2.3c1.334 0 2.394-.44 3.18-1.32.8-.88 1.2-2.087 1.2-3.62s-.4-2.74-1.2-3.62c-.786-.88-1.846-1.32-3.18-1.32-1.333 0-2.4.44-3.2 1.32-.8.88-1.2 2.087-1.2 3.62s.4 2.74 1.2 3.62c.8.88 1.867 1.32 3.2 1.32zm15.38 2.3c-1.32 0-2.473-.3-3.46-.9-.986-.6-1.753-1.433-2.3-2.5-.546-1.08-.82-2.333-.82-3.76 0-1.44.28-2.707.84-3.8.574-1.107 1.38-1.967 2.42-2.58 1.054-.627 2.3-.94 3.74-.94 1.64 0 3 .393 4.081 1.18 1.08.787 1.78 1.873 2.1 3.26h-2.86a2.772 2.772 0 00-1.16-1.52c-.56-.373-1.28-.56-2.16-.56-1.4 0-2.48.447-3.24 1.34-.76.88-1.14 2.093-1.14 3.64 0 1.547.373 2.747 1.12 3.6.76.84 1.786 1.26 3.08 1.26 1.266 0 2.22-.34 2.86-1.02.653-.693 1.046-1.6 1.18-2.72h-3.54V28.3h6.12V36h-2.36l-.2-1.84a4.696 4.696 0 01-1.7 1.54c-.68.36-1.547.54-2.6.54zm15.909 0c-1.4 0-2.626-.307-3.68-.92a6.624 6.624 0 01-2.46-2.54c-.586-1.093-.88-2.353-.88-3.78 0-1.427.294-2.68.88-3.76a6.587 6.587 0 012.46-2.56c1.054-.613 2.28-.92 3.68-.92 1.387 0 2.607.307 3.66.92a6.396 6.396 0 012.46 2.56c.587 1.08.88 2.333.88 3.76 0 1.427-.293 2.687-.88 3.78a6.43 6.43 0 01-2.46 2.54c-1.053.613-2.273.92-3.66.92zm0-2.3c1.334 0 2.394-.44 3.18-1.32.8-.88 1.2-2.087 1.2-3.62s-.4-2.74-1.2-3.62c-.786-.88-1.846-1.32-3.18-1.32-1.333 0-2.4.44-3.2 1.32-.8.88-1.2 2.087-1.2 3.62s.4 2.74 1.2 3.62c.8.88 1.867 1.32 3.2 1.32z" fill="#000"/></svg>